<svg xmlns="http://www.w3.org/2000/svg" style="display:none">

<symbol id="i-games" viewBox="0 0 24 24" fill="none" stroke="currentColor" stroke-width="1.75" stroke-linecap="round" stroke-linejoin="round">
  <path d="M6 8h12a3 3 0 0 1 3 3v3a3 3 0 0 1-5.2 2L15 15H9l-.8 1A3 3 0 0 1 3 14v-3a3 3 0 0 1 3-3z"></path>
  <path d="M8 11v2M7 12h2"></path><circle cx="16" cy="11.5" r=".7" fill="currentColor"></circle><circle cx="17.5" cy="13" r=".7" fill="currentColor"></circle>
</symbol>
<symbol id="i-hub" viewBox="0 0 24 24" fill="none" stroke="currentColor" stroke-width="1.75" stroke-linecap="round" stroke-linejoin="round">
  <path d="M4 20V9l8-5 8 5v11"></path><path d="M4 20h16"></path><path d="M9 20v-6h6v6"></path><path d="M8 11h2M14 11h2"></path>
</symbol>
<symbol id="i-guide" viewBox="0 0 24 24" fill="none" stroke="currentColor" stroke-width="1.75" stroke-linecap="round" stroke-linejoin="round">
  <path d="M5 4h9a4 4 0 0 1 4 4v12"></path><path d="M18 20H7a2 2 0 0 1-2-2V4"></path><path d="M8 8h6M8 12h6"></path>
</symbol>
<symbol id="i-units" viewBox="0 0 24 24" fill="none" stroke="currentColor" stroke-width="1.75" stroke-linecap="round" stroke-linejoin="round">
  <path d="M12 3l2.3 4.7 5.2.7-3.8 3.6.9 5.2L12 14.8 7.4 17.2l.9-5.2L4.5 8.4l5.2-.7L12 3z"></path>
  <path d="M8 18l1-4M16 18l-1-4"></path>
</symbol>
<symbol id="i-generals" viewBox="0 0 24 24" fill="none" stroke="currentColor" stroke-width="1.75" stroke-linecap="round" stroke-linejoin="round">
  <circle cx="12" cy="9" r="3.5"></circle><path d="M5 20c1.5-3.5 4-5 7-5s5.5 1.5 7 5"></path>
  <path d="M8.5 6.5L12 4l3.5 2.5"></path>
</symbol>
<symbol id="i-skills" viewBox="0 0 24 24" fill="none" stroke="currentColor" stroke-width="1.75" stroke-linecap="round" stroke-linejoin="round">
  <path d="M13 3L5 13h5l-1 8 8-10h-5l1-8z"></path>
</symbol>
<symbol id="i-tech" viewBox="0 0 24 24" fill="none" stroke="currentColor" stroke-width="1.75" stroke-linecap="round" stroke-linejoin="round">
  <path d="M9 3v5l-4 9a4 4 0 0 0 3.6 5.8h6.8A4 4 0 0 0 19 17l-4-9V3"></path>
  <path d="M9 3h6"></path><circle cx="11" cy="15" r=".8" fill="currentColor"></circle><circle cx="14" cy="18" r=".8" fill="currentColor"></circle>
</symbol>
<symbol id="i-scenarios" viewBox="0 0 24 24" fill="none" stroke="currentColor" stroke-width="1.75" stroke-linecap="round" stroke-linejoin="round">
  <path d="M3 6l6-2 6 2 6-2v14l-6 2-6-2-6 2V6z"></path><path d="M9 4v16M15 6v16"></path>
</symbol>
<symbol id="i-leaderboard" viewBox="0 0 24 24" fill="none" stroke="currentColor" stroke-width="1.75" stroke-linecap="round" stroke-linejoin="round">
  <path d="M6 9V4h12v5a6 6 0 0 1-12 0z"></path><path d="M4 6H2v2a3 3 0 0 0 4 3M20 6h2v2a3 3 0 0 1-4 3"></path>
  <path d="M10 15h4v3h3v2H7v-2h3v-3z"></path>
</symbol>
<symbol id="i-compare" viewBox="0 0 24 24" fill="none" stroke="currentColor" stroke-width="1.75" stroke-linecap="round" stroke-linejoin="round">
  <path d="M12 3v18"></path><path d="M3 8l5-2 5 2-5 8-5-8z"></path><path d="M11 10l5-2 5 2-5 8-5-8z"></path>
</symbol>
<symbol id="i-news" viewBox="0 0 24 24" fill="none" stroke="currentColor" stroke-width="1.75" stroke-linecap="round" stroke-linejoin="round">
  <path d="M4 9l13-5v16L4 15V9z"></path><path d="M4 9H3a2 2 0 0 0 0 4h1"></path><path d="M7 15v3a2 2 0 0 0 4 0v-2"></path>
</symbol>
<symbol id="i-search" viewBox="0 0 24 24" fill="none" stroke="currentColor" stroke-width="1.75" stroke-linecap="round" stroke-linejoin="round">
  <circle cx="11" cy="11" r="6"></circle><path d="M20 20l-4.5-4.5"></path>
</symbol>
<symbol id="i-warning" viewBox="0 0 24 24" fill="none" stroke="currentColor" stroke-width="1.75" stroke-linecap="round" stroke-linejoin="round">
  <path d="M12 4L2.5 20h19L12 4z"></path><path d="M12 10v4"></path><circle cx="12" cy="17" r=".9" fill="currentColor"></circle>
</symbol>
<symbol id="i-instagram" viewBox="0 0 24 24" fill="none" stroke="currentColor" stroke-width="1.75" stroke-linecap="round" stroke-linejoin="round">
  <rect x="3.5" y="3.5" width="17" height="17" rx="4.5"></rect><circle cx="12" cy="12" r="3.8"></circle><circle cx="17" cy="7" r=".9" fill="currentColor"></circle>
</symbol>
<symbol id="i-reddit" viewBox="0 0 24 24" fill="none" stroke="currentColor" stroke-width="1.75" stroke-linecap="round" stroke-linejoin="round">
  <circle cx="12" cy="13" r="8"></circle><circle cx="9" cy="12.5" r=".9" fill="currentColor"></circle><circle cx="15" cy="12.5" r=".9" fill="currentColor"></circle>
  <path d="M9 16c1 1 2 1.3 3 1.3s2-.3 3-1.3"></path><path d="M12 5V3l3 1"></path><circle cx="19" cy="10" r="1.5"></circle><circle cx="5" cy="10" r="1.5"></circle>
</symbol>
<symbol id="i-chevron" viewBox="0 0 24 24" fill="none" stroke="currentColor" stroke-width="2" stroke-linecap="round" stroke-linejoin="round">
  <path d="M9 5l7 7-7 7"></path>
</symbol>
<symbol id="i-menu" viewBox="0 0 24 24" fill="none" stroke="currentColor" stroke-width="2" stroke-linecap="round">
  <path d="M4 7h16M4 12h16M4 17h16"></path>
</symbol>
<symbol id="i-close" viewBox="0 0 24 24" fill="none" stroke="currentColor" stroke-width="2" stroke-linecap="round">
  <path d="M6 6l12 12M18 6L6 18"></path>
</symbol>
</svg>